<svg xmlns="http://www.w3.org/2000/svg" viewBox="0 0 32 32" fill="none">
  <defs>
    <linearGradient id="bgGrad" x1="0%" y1="0%" x2="100%" y2="100%">
      <stop offset="0%" stop-color="#dc2626"/>
      <stop offset="50%" stop-color="#e11d48"/>
      <stop offset="100%" stop-color="#b91c1c"/>
    </linearGradient>
  </defs>
  <!-- Background -->
  <rect width="32" height="32" rx="8" fill="url(#bgGrad)"/>
  <!-- Film strip body -->
  <rect x="6" y="4" width="20" height="24" rx="2" stroke="white" stroke-width="1.5" fill="rgba(255,255,255,0.1)"/>
  <!-- Sprocket holes left -->
  <rect x="8" y="6" width="3" height="2" rx="0.5" fill="white" opacity="0.8"/>
  <rect x="8" y="12" width="3" height="2" rx="0.5" fill="white" opacity="0.8"/>
  <rect x="8" y="18" width="3" height="2" rx="0.5" fill="white" opacity="0.8"/>
  <rect x="8" y="24" width="3" height="2" rx="0.5" fill="white" opacity="0.8"/>
  <!-- Sprocket holes right -->
  <rect x="21" y="6" width="3" height="2" rx="0.5" fill="white" opacity="0.8"/>
  <rect x="21" y="12" width="3" height="2" rx="0.5" fill="white" opacity="0.8"/>
  <rect x="21" y="18" width="3" height="2" rx="0.5" fill="white" opacity="0.8"/>
  <rect x="21" y="24" width="3" height="2" rx="0.5" fill="white" opacity="0.8"/>
  <!-- Film frame -->
  <rect x="12" y="10" width="8" height="6" rx="1" stroke="white" stroke-width="1.5" fill="rgba(255,255,255,0.2)"/>
  <!-- Play triangle -->
  <path d="M14 12L14 14.5L17 13.25Z" fill="white"/>
</svg>
